<?xml version="1.0" encoding="UTF-8" standalone="no"?>
<svg
   xmlns:dc="http://purl.org/dc/elements/1.1/"
   xmlns:cc="http://creativecommons.org/ns#"
   xmlns:rdf="http://www.w3.org/1999/02/22-rdf-syntax-ns#"
   xmlns:svg="http://www.w3.org/2000/svg"
   xmlns="http://www.w3.org/2000/svg"
   xmlns:sodipodi="http://sodipodi.sourceforge.net/DTD/sodipodi-0.dtd"
   xmlns:inkscape="http://www.inkscape.org/namespaces/inkscape"
   inkscape:version="1.1-dev (ddb55ca, 2020-02-02)"
   height="116.15"
   width="380.89001"
   sodipodi:docname="NCI LOGO-FA-3C.svg"
   id="svg965"
   xml:space="preserve"
   viewBox="0 0 380.89001 116.15"
   y="0px"
   x="0px"
   version="1.1"><metadata
   id="metadata971"><rdf:RDF><cc:Work
       rdf:about=""><dc:format>image/svg+xml</dc:format><dc:type
         rdf:resource="http://purl.org/dc/dcmitype/StillImage" /><dc:title></dc:title></cc:Work></rdf:RDF></metadata><defs
   id="defs969" /><sodipodi:namedview
   inkscape:current-layer="svg965"
   inkscape:window-maximized="0"
   inkscape:window-y="23"
   inkscape:window-x="0"
   inkscape:cy="57.13"
   inkscape:cx="190.55"
   inkscape:zoom="1.422"
   fit-margin-bottom="4"
   fit-margin-right="4"
   fit-margin-top="4"
   fit-margin-left="4"
   showgrid="false"
   id="namedview967"
   inkscape:window-height="554"
   inkscape:window-width="1390"
   inkscape:pageshadow="2"
   inkscape:pageopacity="0"
   guidetolerance="10"
   gridtolerance="10"
   objecttolerance="10"
   borderopacity="1"
   bordercolor="#666666"
   pagecolor="#ffffff" />
<style
   id="style833"
   type="text/css">
	.st0{display:none;fill:none;stroke:#A2CD3A;stroke-miterlimit:10;}
	.st1{fill:#BB1F40;}
	.st2{fill:#706F70;}
</style>
<g
   transform="translate(-59.45,-92.87)"
   id="Layer_1">
</g>
<g
   transform="translate(-59.45,-92.87)"
   id="Layer_2">
	<path
   inkscape:connector-curvature="0"
   id="path836"
   d="m 105.07,131.44 c -3.36,-3.63 -7.35,-5.45 -11.98,-5.45 -4.63,0.03 -8.53,1.38 -11.7,4.05 -3.26,2.77 -4.89,6.48 -4.89,11.14 -0.03,4.63 1.66,8.42 5.08,11.37 3.26,2.83 7.22,4.23 11.88,4.19 4.94,0.06 9.4,-2.38 13.37,-7.32 h 13.05 c -1.12,3.14 -2.07,5.41 -2.84,6.8 -2.3,4.13 -5.67,7.46 -10.11,9.97 -4.32,2.42 -8.89,3.62 -13.7,3.59 -7.98,0 -14.9,-2.72 -20.74,-8.15 -6.03,-5.65 -9.04,-12.41 -9.04,-20.27 0,-7.86 2.94,-14.59 8.81,-20.18 5.75,-5.47 12.61,-8.22 20.6,-8.25 6.24,0.03 11.9,1.96 16.96,5.78 4.63,3.48 7.98,8.4 10.07,14.77 h -13.05 z" />
	<path
   inkscape:connector-curvature="0"
   id="path838"
   d="m 178.17,114.16 h 13.05 v 4.89 c 0.99,-0.9 1.91,-1.66 2.75,-2.28 3.36,-2.58 7.15,-3.85 11.37,-3.82 7.18,0.06 12.8,3.09 16.87,9.09 2.52,3.73 3.77,10.14 3.77,19.25 v 27.31 h -13.05 v -27.07 c 0,-5.31 -0.47,-8.82 -1.4,-10.53 -1.77,-3.35 -4.72,-5.02 -8.85,-4.99 -4.19,-0.03 -7.25,1.32 -9.18,4.05 -1.12,1.49 -1.8,3.7 -2.05,6.62 -0.19,1.58 -0.26,3.18 -0.23,4.8 v 27.12 h -13.05 z" />
	<path
   inkscape:connector-curvature="0"
   id="path840"
   d="m 231.14,114.16 h 13.05 v 4.89 c 0.99,-0.9 1.91,-1.66 2.75,-2.28 3.36,-2.58 7.15,-3.85 11.37,-3.82 7.18,0.06 12.8,3.09 16.87,9.09 2.52,3.73 3.77,10.14 3.77,19.25 V 168.6 H 265.9 v -27.07 c 0,-5.31 -0.47,-8.82 -1.4,-10.53 -1.77,-3.35 -4.72,-5.02 -8.85,-4.99 -4.19,-0.03 -7.25,1.32 -9.18,4.05 -1.12,1.49 -1.8,3.7 -2.05,6.62 -0.19,1.58 -0.26,3.18 -0.23,4.8 v 27.12 h -13.05 z" />
	<path
   inkscape:connector-curvature="0"
   id="path842"
   d="m 309.42,158.01 c 5.16,-0.03 9.68,-2.03 13.56,-6.01 h 13.05 c -0.87,2.02 -1.58,3.48 -2.14,4.38 -2.3,3.85 -5.81,7.11 -10.53,9.79 -4.32,2.45 -8.93,3.67 -13.84,3.63 -7.58,0.03 -14.04,-2.47 -19.39,-7.5 -5.93,-5.5 -8.89,-12.38 -8.85,-20.64 -0.03,-7.95 2.8,-14.74 8.48,-20.36 5.56,-5.53 12.32,-8.31 20.27,-8.34 8.01,0 14.71,2.8 20.08,8.39 5.37,5.59 8.08,12.38 8.11,20.36 l -0.14,2.94 -0.28,2.47 h -43.48 c 2.05,7.25 7.09,10.89 15.1,10.89 z M 293.86,136.9 h 31.17 l -0.37,-2.19 c -0.84,-3.11 -2.75,-5.58 -5.73,-7.41 -2.7,-1.62 -5.75,-2.42 -9.13,-2.42 -3.57,0.03 -6.74,0.89 -9.51,2.56 -3.11,1.86 -5.11,4.4 -6.01,7.6 z" />
	<path
   inkscape:connector-curvature="0"
   id="path844"
   d="m 382.29,131.44 c -3.36,-3.63 -7.35,-5.45 -11.98,-5.45 -4.63,0.03 -8.53,1.38 -11.7,4.05 -3.26,2.77 -4.89,6.48 -4.89,11.14 -0.03,4.63 1.66,8.42 5.08,11.37 3.26,2.83 7.22,4.23 11.88,4.19 4.94,0.06 9.4,-2.38 13.37,-7.32 h 13.05 c -1.12,3.14 -2.07,5.41 -2.84,6.8 -2.3,4.13 -5.67,7.46 -10.11,9.97 -4.32,2.42 -8.89,3.62 -13.7,3.59 -7.98,0 -14.9,-2.72 -20.74,-8.15 -6.03,-5.65 -9.04,-12.41 -9.04,-20.27 0,-7.86 2.94,-14.59 8.81,-20.18 5.75,-5.47 12.61,-8.22 20.6,-8.25 6.24,0.03 11.9,1.96 16.96,5.78 4.63,3.48 7.98,8.4 10.07,14.77 h -13.05 z" />
	<path
   inkscape:connector-curvature="0"
   id="path846"
   d="m 430.49,156.26 c -1.94,0.97 -4.32,1.62 -6.37,1.62 -4.1,0 -6.91,-2.48 -6.91,-7.56 v -8.78 c 0,0 0,0 0,0 V 127.2 h 10.77 V 114.15 H 417.2 V 96.87 h -13.05 v 17.29 h -7.35 v 13.05 h 7.35 v 16.88 c -0.01,0 -0.01,0 -0.02,0 v 6.24 c 0,13.28 7.56,19.87 19.11,19.44 3.99,-0.11 7.13,-0.76 10.91,-2.27 z" />
	<g
   id="g852">
		<path
   inkscape:connector-curvature="0"
   id="path848"
   d="m 136.37,140.76 c 0,-8.44 6.06,-15.42 14.05,-16.94 -2.58,-1.54 -5.53,-2.48 -8.67,-2.79 -12.63,-1.28 -20.4,10.77 -20.14,20.46 0.3,10.89 9.33,19.6 20.32,19.6 1.69,0 3.33,-0.22 4.91,-0.61 1.77,-0.63 3.44,-1.48 4.98,-2.58 -8.68,-0.91 -15.45,-8.21 -15.45,-17.14 z"
   class="st1" />
		<path
   inkscape:connector-curvature="0"
   id="path850"
   d="m 175.07,138.82 c -0.92,-13.41 -11.7,-24.33 -25.1,-25.41 -9.08,-0.73 -17.32,2.96 -22.81,9.15 4.15,-2.85 9.28,-4.36 14.79,-3.91 11.13,0.92 20.07,10.05 20.78,21.2 0.83,13.23 -9.65,24.22 -22.7,24.22 -3.61,0 -7.01,-0.84 -10.04,-2.34 4.78,4.04 10.96,6.48 17.71,6.48 15.79,0 28.47,-13.35 27.37,-29.39 z" />
	</g>
	<g
   id="g894">
		<g
   id="g892">
			<path
   inkscape:connector-curvature="0"
   id="path854"
   d="m 73.75,200.14 v -13.81 h -1.62 v -2.44 h 1.62 v -0.62 c 0,-0.69 0.03,-1.27 0.08,-1.75 0.05,-0.48 0.15,-0.94 0.31,-1.38 0.16,-0.44 0.37,-0.8 0.63,-1.07 0.26,-0.27 0.62,-0.48 1.07,-0.63 0.45,-0.15 0.98,-0.23 1.59,-0.23 0.52,0 1.19,0.05 2.01,0.15 v 2.41 c -0.08,-0.01 -0.26,-0.03 -0.52,-0.07 -0.26,-0.04 -0.45,-0.06 -0.57,-0.06 -0.54,0 -0.9,0.17 -1.08,0.51 C 77.09,181.49 77,182 77,182.67 v 1.22 h 2.44 v 2.44 H 77 v 13.81 z" />
			<path
   inkscape:connector-curvature="0"
   id="path856"
   d="m 88.96,198.84 c -0.75,1.02 -2,1.52 -3.75,1.52 -1.75,0 -2.99,-0.51 -3.75,-1.52 -0.76,-1.01 -1.13,-2.48 -1.13,-4.39 v -4.88 c 0,-1.91 0.38,-3.38 1.13,-4.39 0.75,-1.01 2,-1.52 3.75,-1.52 1.75,0 2.99,0.51 3.75,1.52 0.76,1.01 1.13,2.48 1.13,4.39 v 4.88 c 0,1.91 -0.38,3.38 -1.13,4.39 z m -4.35,-1.24 c 0.17,0.07 0.37,0.1 0.6,0.1 0.23,0 0.43,-0.03 0.6,-0.1 0.17,-0.07 0.32,-0.15 0.43,-0.25 0.11,-0.1 0.21,-0.24 0.29,-0.43 0.08,-0.19 0.14,-0.36 0.18,-0.5 0.04,-0.14 0.07,-0.35 0.09,-0.62 0.02,-0.27 0.03,-0.48 0.03,-0.64 0,-0.16 0.01,-0.39 0.01,-0.7 v -4.88 c 0,-0.31 0,-0.55 -0.01,-0.7 -0.01,-0.15 -0.01,-0.37 -0.03,-0.64 -0.02,-0.27 -0.05,-0.48 -0.09,-0.62 -0.04,-0.14 -0.1,-0.31 -0.18,-0.5 -0.08,-0.19 -0.17,-0.33 -0.29,-0.43 -0.11,-0.1 -0.26,-0.18 -0.43,-0.25 -0.17,-0.07 -0.37,-0.1 -0.6,-0.1 -0.23,0 -0.43,0.03 -0.6,0.1 -0.17,0.07 -0.32,0.15 -0.43,0.25 -0.11,0.1 -0.21,0.24 -0.29,0.43 -0.08,0.19 -0.14,0.36 -0.18,0.5 -0.04,0.14 -0.07,0.35 -0.09,0.62 -0.02,0.27 -0.03,0.48 -0.03,0.64 0,0.16 -0.01,0.39 -0.01,0.7 v 4.88 c 0,0.31 0,0.55 0.01,0.7 0.01,0.15 0.01,0.37 0.03,0.64 0.02,0.27 0.05,0.48 0.09,0.62 0.04,0.14 0.1,0.31 0.18,0.5 0.08,0.19 0.17,0.33 0.29,0.43 0.12,0.1 0.26,0.18 0.43,0.25 z" />
			<path
   inkscape:connector-curvature="0"
   id="path858"
   d="m 92.52,200.14 v -16.25 h 3.25 v 2.17 c 0.33,-0.64 0.81,-1.2 1.44,-1.68 0.63,-0.48 1.33,-0.72 2.1,-0.72 0.03,0 0.2,0.02 0.52,0.05 v 3.59 c -0.6,-0.24 -1.2,-0.36 -1.8,-0.36 -0.68,0 -1.22,0.2 -1.64,0.61 -0.42,0.41 -0.62,0.94 -0.62,1.61 v 10.97 h -3.25 z" />
			<path
   inkscape:connector-curvature="0"
   id="path860"
   d="m 110.19,200.37 c -0.79,0 -1.47,-0.13 -2.05,-0.39 -0.58,-0.26 -1.04,-0.6 -1.39,-1.03 -0.35,-0.43 -0.63,-0.96 -0.84,-1.62 -0.21,-0.66 -0.36,-1.31 -0.44,-1.97 -0.08,-0.66 -0.13,-1.42 -0.15,-2.29 -0.03,-0.7 -0.03,-1.41 0,-2.12 0.02,-0.86 0.07,-1.62 0.15,-2.29 0.08,-0.67 0.23,-1.32 0.44,-1.97 0.21,-0.65 0.5,-1.19 0.84,-1.61 0.34,-0.42 0.8,-0.76 1.38,-1.02 0.58,-0.26 1.26,-0.39 2.05,-0.39 1.71,0 2.94,0.46 3.68,1.38 0.74,0.92 1.14,2.29 1.19,4.1 v 0.43 h -3.25 v -0.46 c -0.01,-0.41 -0.04,-0.76 -0.08,-1.07 -0.04,-0.31 -0.12,-0.61 -0.23,-0.91 -0.11,-0.3 -0.27,-0.54 -0.5,-0.7 -0.23,-0.16 -0.5,-0.25 -0.82,-0.25 -0.32,0 -0.59,0.1 -0.81,0.29 -0.22,0.19 -0.39,0.46 -0.5,0.82 -0.11,0.36 -0.2,0.72 -0.25,1.1 -0.05,0.38 -0.08,0.81 -0.09,1.3 -0.03,1.05 -0.03,2.63 0,4.75 0.02,0.47 0.05,0.87 0.1,1.23 0.05,0.36 0.13,0.69 0.25,1.02 0.12,0.33 0.28,0.58 0.5,0.76 0.22,0.18 0.49,0.27 0.8,0.27 0.29,0 0.54,-0.06 0.74,-0.17 0.2,-0.11 0.37,-0.25 0.48,-0.41 0.11,-0.16 0.2,-0.38 0.26,-0.65 0.06,-0.27 0.1,-0.52 0.12,-0.76 0.02,-0.24 0.03,-0.53 0.03,-0.88 v -0.39 h 3.25 v 0.42 c -0.03,0.85 -0.13,1.61 -0.32,2.27 -0.19,0.66 -0.47,1.23 -0.84,1.72 -0.37,0.49 -0.88,0.87 -1.5,1.12 -0.62,0.25 -1.34,0.37 -2.2,0.37 z"
   class="st1" />
			<path
   inkscape:connector-curvature="0"
   id="path862"
   d="m 119.68,200.37 c -0.91,0 -1.67,-0.39 -2.3,-1.17 -0.63,-0.78 -0.95,-1.67 -0.95,-2.65 0,-0.79 0.13,-1.5 0.4,-2.15 0.27,-0.65 0.55,-1.16 0.84,-1.54 0.29,-0.38 0.79,-0.78 1.49,-1.19 0.7,-0.41 1.22,-0.69 1.57,-0.84 0.35,-0.15 0.97,-0.4 1.85,-0.75 0.15,-0.06 0.27,-0.11 0.34,-0.14 v -1.17 c 0,-0.82 -0.11,-1.46 -0.34,-1.91 -0.23,-0.45 -0.66,-0.68 -1.28,-0.68 -0.56,0 -0.96,0.19 -1.2,0.58 -0.24,0.39 -0.38,0.92 -0.41,1.59 -0.01,0.09 -0.01,0.23 -0.01,0.42 h -3.25 c 0.02,-1.56 0.45,-2.8 1.31,-3.72 0.86,-0.92 2.04,-1.38 3.57,-1.38 1.52,0 2.71,0.47 3.57,1.4 0.86,0.93 1.3,2.17 1.3,3.7 v 7.31 c 0,1.69 0.14,3.05 0.42,4.06 h -3.24 l -0.43,-2.44 c -0.17,0.34 -0.31,0.6 -0.41,0.79 -0.1,0.19 -0.26,0.42 -0.46,0.69 -0.2,0.27 -0.41,0.49 -0.61,0.63 -0.2,0.14 -0.46,0.28 -0.76,0.39 -0.3,0.11 -0.64,0.17 -1.01,0.17 z m 1.63,-2.67 c 0.23,0 0.45,-0.07 0.67,-0.2 0.22,-0.13 0.38,-0.27 0.49,-0.39 0.11,-0.12 0.25,-0.3 0.41,-0.51 0.03,-0.04 0.05,-0.07 0.06,-0.09 v -4.49 c -0.14,0.09 -0.36,0.24 -0.67,0.43 -0.31,0.19 -0.56,0.35 -0.75,0.48 -0.19,0.13 -0.41,0.29 -0.67,0.51 -0.26,0.22 -0.47,0.42 -0.61,0.62 -0.14,0.2 -0.27,0.44 -0.38,0.73 -0.11,0.29 -0.17,0.59 -0.17,0.9 -0.01,1.34 0.54,2.01 1.62,2.01 z"
   class="st1" />
			<path
   inkscape:connector-curvature="0"
   id="path864"
   d="m 128.74,200.14 v -16.25 h 3.25 v 1.75 c 0.48,-0.44 0.88,-0.78 1.18,-1.01 0.3,-0.23 0.73,-0.45 1.26,-0.66 0.53,-0.21 1.11,-0.31 1.72,-0.31 0.69,0 1.26,0.25 1.69,0.76 0.43,0.51 0.65,1.13 0.65,1.87 v 13.85 h -3.25 v -12.19 c 0,-0.57 -0.08,-0.98 -0.24,-1.24 -0.16,-0.26 -0.49,-0.39 -0.98,-0.39 -0.28,0 -0.56,0.06 -0.83,0.17 -0.27,0.11 -0.48,0.22 -0.62,0.32 -0.14,0.1 -0.33,0.25 -0.58,0.46 v 12.86 h -3.25 z"
   class="st1" />
			<path
   inkscape:connector-curvature="0"
   id="path866"
   d="m 145.17,200.37 c -0.79,0 -1.47,-0.13 -2.05,-0.39 -0.58,-0.26 -1.04,-0.6 -1.39,-1.03 -0.35,-0.43 -0.63,-0.96 -0.84,-1.62 -0.21,-0.66 -0.36,-1.31 -0.44,-1.97 -0.08,-0.66 -0.13,-1.42 -0.15,-2.29 -0.03,-0.7 -0.03,-1.41 0,-2.12 0.02,-0.86 0.07,-1.62 0.15,-2.29 0.08,-0.67 0.23,-1.32 0.44,-1.97 0.21,-0.65 0.5,-1.19 0.84,-1.61 0.34,-0.42 0.8,-0.76 1.38,-1.02 0.58,-0.26 1.26,-0.39 2.05,-0.39 1.71,0 2.94,0.46 3.68,1.38 0.74,0.92 1.14,2.29 1.19,4.1 v 0.43 h -3.25 v -0.46 c -0.01,-0.41 -0.04,-0.76 -0.08,-1.07 -0.04,-0.31 -0.12,-0.61 -0.23,-0.91 -0.11,-0.3 -0.27,-0.54 -0.5,-0.7 -0.23,-0.16 -0.5,-0.25 -0.82,-0.25 -0.32,0 -0.59,0.1 -0.81,0.29 -0.22,0.19 -0.39,0.46 -0.5,0.82 -0.11,0.36 -0.2,0.72 -0.25,1.1 -0.05,0.38 -0.08,0.81 -0.09,1.3 -0.03,1.05 -0.03,2.63 0,4.75 0.02,0.47 0.05,0.87 0.1,1.23 0.05,0.36 0.13,0.69 0.25,1.02 0.12,0.33 0.28,0.58 0.5,0.76 0.22,0.18 0.49,0.27 0.8,0.27 0.29,0 0.54,-0.06 0.74,-0.17 0.2,-0.11 0.37,-0.25 0.48,-0.41 0.11,-0.16 0.2,-0.38 0.26,-0.65 0.06,-0.27 0.1,-0.52 0.12,-0.76 0.02,-0.24 0.03,-0.53 0.03,-0.88 v -0.39 h 3.25 v 0.42 c -0.03,0.85 -0.13,1.61 -0.32,2.27 -0.19,0.66 -0.47,1.23 -0.84,1.72 -0.37,0.49 -0.88,0.87 -1.5,1.12 -0.62,0.25 -1.35,0.37 -2.2,0.37 z"
   class="st1" />
			<path
   inkscape:connector-curvature="0"
   id="path868"
   d="m 156.42,200.37 c -0.79,0 -1.47,-0.14 -2.05,-0.41 -0.58,-0.27 -1.04,-0.62 -1.38,-1.06 -0.34,-0.44 -0.62,-0.99 -0.83,-1.68 -0.21,-0.69 -0.36,-1.36 -0.44,-2.04 -0.08,-0.68 -0.13,-1.47 -0.15,-2.38 -0.03,-0.71 -0.03,-1.42 0,-2.13 0.03,-0.85 0.08,-1.6 0.17,-2.25 0.09,-0.65 0.24,-1.29 0.46,-1.91 0.22,-0.62 0.51,-1.13 0.86,-1.52 0.35,-0.39 0.81,-0.72 1.38,-0.96 0.57,-0.24 1.24,-0.36 2,-0.36 0.69,0 1.31,0.09 1.83,0.27 0.52,0.18 0.97,0.46 1.32,0.83 0.35,0.37 0.64,0.78 0.88,1.23 0.24,0.45 0.41,0.99 0.53,1.63 0.12,0.64 0.2,1.27 0.25,1.89 0.05,0.62 0.07,1.33 0.07,2.13 v 0.38 h -6.5 v 0.81 c 0,0.11 0,0.28 0,0.52 -0.02,0.31 -0.02,0.64 -0.01,0.97 0.01,0.33 0.03,0.66 0.04,0.98 0.01,0.32 0.06,0.63 0.14,0.92 0.08,0.29 0.17,0.55 0.28,0.77 0.11,0.22 0.26,0.39 0.46,0.52 0.2,0.13 0.43,0.19 0.7,0.19 0.34,0 0.62,-0.07 0.84,-0.2 0.22,-0.13 0.38,-0.33 0.49,-0.59 0.11,-0.26 0.18,-0.52 0.22,-0.79 0.04,-0.27 0.07,-0.59 0.08,-0.99 v -0.69 h 3.22 v 0.65 c -0.08,1.73 -0.5,3.05 -1.28,3.94 -0.78,0.89 -1.96,1.33 -3.58,1.33 z m -1.6,-9.98 h 3.22 v -0.98 c -0.01,-0.43 -0.03,-0.81 -0.08,-1.13 -0.05,-0.32 -0.12,-0.64 -0.22,-0.96 -0.1,-0.32 -0.27,-0.57 -0.49,-0.74 -0.22,-0.17 -0.49,-0.25 -0.81,-0.25 -0.33,0 -0.61,0.09 -0.83,0.27 -0.22,0.18 -0.39,0.43 -0.5,0.77 -0.11,0.34 -0.18,0.66 -0.22,0.98 -0.04,0.32 -0.07,0.71 -0.08,1.16 v 0.88 z"
   class="st1" />
			<path
   inkscape:connector-curvature="0"
   id="path870"
   d="m 163.44,200.14 v -16.25 h 3.25 v 2.17 c 0.33,-0.64 0.81,-1.2 1.44,-1.68 0.63,-0.48 1.33,-0.72 2.1,-0.72 0.03,0 0.2,0.02 0.52,0.05 v 3.59 c -0.6,-0.24 -1.2,-0.36 -1.8,-0.36 -0.68,0 -1.22,0.2 -1.64,0.61 -0.42,0.41 -0.62,0.94 -0.62,1.61 v 10.97 h -3.25 z"
   class="st1" />
			<path
   inkscape:connector-curvature="0"
   id="path872"
   d="m 177.05,205.01 v -21.12 h 3.25 v 1.62 c 0.26,-0.28 0.44,-0.47 0.55,-0.57 0.11,-0.1 0.28,-0.26 0.53,-0.47 0.25,-0.21 0.47,-0.36 0.65,-0.44 0.18,-0.08 0.41,-0.17 0.7,-0.25 0.29,-0.08 0.58,-0.12 0.88,-0.12 0.55,0 1.04,0.1 1.47,0.3 0.43,0.2 0.79,0.44 1.07,0.72 0.28,0.28 0.52,0.68 0.71,1.2 0.19,0.52 0.34,0.99 0.44,1.42 0.1,0.43 0.17,0.99 0.22,1.71 0.05,0.72 0.08,1.3 0.09,1.75 0.01,0.45 0.01,1.06 0.01,1.83 v 0.24 c 0,0.71 -0.04,1.4 -0.11,2.06 -0.07,0.66 -0.2,1.33 -0.39,2.01 -0.19,0.68 -0.43,1.27 -0.72,1.77 -0.29,0.5 -0.68,0.91 -1.17,1.23 -0.49,0.32 -1.04,0.48 -1.67,0.48 -1.1,0 -2.18,-0.56 -3.25,-1.69 v 6.33 h -3.26 z m 5.68,-7.31 c 0.35,0 0.64,-0.13 0.87,-0.38 0.23,-0.25 0.4,-0.62 0.51,-1.09 0.11,-0.47 0.18,-0.94 0.22,-1.4 0.04,-0.46 0.06,-1 0.06,-1.62 l -0.03,-2.15 c 0,-0.38 0,-0.69 -0.01,-0.92 -0.01,-0.23 -0.02,-0.54 -0.04,-0.93 -0.02,-0.39 -0.06,-0.7 -0.11,-0.95 -0.05,-0.25 -0.12,-0.52 -0.21,-0.81 -0.09,-0.29 -0.21,-0.53 -0.34,-0.7 -0.13,-0.17 -0.3,-0.31 -0.51,-0.43 -0.21,-0.12 -0.44,-0.18 -0.7,-0.18 -0.13,0 -0.25,0.01 -0.36,0.03 -0.11,0.02 -0.23,0.04 -0.36,0.08 -0.13,0.04 -0.22,0.07 -0.3,0.1 -0.08,0.03 -0.18,0.08 -0.31,0.15 -0.13,0.07 -0.22,0.12 -0.27,0.15 -0.05,0.03 -0.15,0.09 -0.29,0.17 -0.14,0.08 -0.22,0.14 -0.25,0.15 v 10.05 c 0.74,0.46 1.55,0.68 2.43,0.68 z" />
			<path
   inkscape:connector-curvature="0"
   id="path874"
   d="m 190.04,200.14 v -16.25 h 3.25 v 2.17 c 0.33,-0.64 0.81,-1.2 1.44,-1.68 0.63,-0.48 1.33,-0.72 2.1,-0.72 0.03,0 0.2,0.02 0.52,0.05 v 3.59 c -0.6,-0.24 -1.2,-0.36 -1.8,-0.36 -0.68,0 -1.22,0.2 -1.64,0.61 -0.42,0.41 -0.62,0.94 -0.62,1.61 v 10.97 h -3.25 z" />
			<path
   inkscape:connector-curvature="0"
   id="path876"
   d="m 203.07,200.37 c -0.79,0 -1.47,-0.14 -2.05,-0.41 -0.58,-0.27 -1.04,-0.62 -1.38,-1.06 -0.34,-0.44 -0.62,-0.99 -0.83,-1.68 -0.21,-0.69 -0.36,-1.36 -0.44,-2.04 -0.08,-0.68 -0.13,-1.47 -0.15,-2.38 -0.03,-0.71 -0.03,-1.42 0,-2.13 0.03,-0.85 0.08,-1.6 0.17,-2.25 0.09,-0.65 0.24,-1.29 0.46,-1.91 0.22,-0.62 0.51,-1.13 0.86,-1.52 0.35,-0.39 0.81,-0.72 1.38,-0.96 0.57,-0.24 1.24,-0.36 2,-0.36 0.69,0 1.31,0.09 1.83,0.27 0.53,0.18 0.97,0.46 1.32,0.83 0.35,0.37 0.64,0.78 0.88,1.23 0.23,0.45 0.41,0.99 0.53,1.63 0.12,0.64 0.2,1.27 0.25,1.89 0.05,0.62 0.07,1.33 0.07,2.13 v 0.38 h -6.5 v 0.81 c 0,0.11 0,0.28 0,0.52 -0.02,0.31 -0.02,0.64 -0.01,0.97 0.01,0.33 0.03,0.66 0.04,0.98 0.01,0.32 0.06,0.63 0.14,0.92 0.08,0.29 0.17,0.55 0.28,0.77 0.11,0.22 0.26,0.39 0.46,0.52 0.2,0.13 0.43,0.19 0.7,0.19 0.34,0 0.62,-0.07 0.84,-0.2 0.22,-0.13 0.38,-0.33 0.49,-0.59 0.11,-0.26 0.18,-0.52 0.22,-0.79 0.04,-0.27 0.07,-0.59 0.08,-0.99 v -0.69 h 3.22 v 0.65 c -0.08,1.73 -0.5,3.05 -1.28,3.94 -0.78,0.89 -1.96,1.33 -3.58,1.33 z m -1.6,-9.98 h 3.22 v -0.98 c -0.01,-0.43 -0.03,-0.81 -0.08,-1.13 -0.05,-0.32 -0.12,-0.64 -0.22,-0.96 -0.11,-0.32 -0.27,-0.57 -0.49,-0.74 -0.22,-0.17 -0.49,-0.25 -0.81,-0.25 -0.33,0 -0.61,0.09 -0.83,0.27 -0.22,0.18 -0.39,0.43 -0.5,0.77 -0.11,0.34 -0.18,0.66 -0.22,0.98 -0.04,0.32 -0.07,0.71 -0.08,1.16 v 0.88 z" />
			<path
   inkscape:connector-curvature="0"
   id="path878"
   d="m 212.51,200.14 -3.66,-16.25 h 3.12 l 2.26,12.2 2.06,-12.2 h 3.12 l -3.63,16.25 z" />
			<path
   inkscape:connector-curvature="0"
   id="path880"
   d="m 225.32,200.37 c -0.79,0 -1.47,-0.14 -2.05,-0.41 -0.58,-0.27 -1.04,-0.62 -1.38,-1.06 -0.34,-0.44 -0.62,-0.99 -0.83,-1.68 -0.21,-0.69 -0.36,-1.36 -0.44,-2.04 -0.08,-0.68 -0.13,-1.47 -0.15,-2.38 -0.03,-0.71 -0.03,-1.42 0,-2.13 0.03,-0.85 0.08,-1.6 0.17,-2.25 0.09,-0.66 0.24,-1.29 0.46,-1.91 0.22,-0.62 0.51,-1.13 0.86,-1.52 0.35,-0.4 0.81,-0.72 1.38,-0.96 0.57,-0.24 1.24,-0.36 2,-0.36 0.69,0 1.31,0.09 1.83,0.27 0.53,0.18 0.97,0.46 1.32,0.83 0.35,0.37 0.64,0.78 0.88,1.23 0.23,0.45 0.41,0.99 0.53,1.63 0.12,0.64 0.2,1.27 0.25,1.89 0.05,0.62 0.07,1.33 0.07,2.13 v 0.38 h -6.5 v 0.81 c 0,0.11 0,0.28 0,0.52 -0.02,0.31 -0.02,0.64 -0.01,0.97 0.01,0.33 0.03,0.66 0.04,0.98 0.01,0.32 0.06,0.63 0.14,0.92 0.08,0.29 0.17,0.55 0.28,0.77 0.11,0.22 0.26,0.39 0.46,0.52 0.2,0.13 0.43,0.19 0.7,0.19 0.34,0 0.62,-0.07 0.84,-0.2 0.22,-0.13 0.38,-0.33 0.49,-0.59 0.11,-0.26 0.18,-0.52 0.22,-0.79 0.04,-0.27 0.07,-0.59 0.08,-0.99 v -0.69 h 3.22 v 0.65 c -0.08,1.73 -0.5,3.05 -1.28,3.94 -0.78,0.89 -1.97,1.33 -3.58,1.33 z m -1.6,-9.98 h 3.22 v -0.98 c -0.01,-0.43 -0.03,-0.81 -0.08,-1.13 -0.05,-0.32 -0.12,-0.64 -0.22,-0.96 -0.11,-0.32 -0.27,-0.57 -0.49,-0.74 -0.22,-0.17 -0.49,-0.25 -0.81,-0.25 -0.33,0 -0.61,0.09 -0.83,0.27 -0.22,0.18 -0.39,0.43 -0.5,0.77 -0.11,0.33 -0.18,0.66 -0.22,0.98 -0.04,0.32 -0.07,0.71 -0.08,1.16 v 0.88 z" />
			<path
   inkscape:connector-curvature="0"
   id="path882"
   d="m 232.33,200.14 v -16.25 h 3.25 v 1.75 c 0.48,-0.44 0.88,-0.78 1.18,-1.01 0.3,-0.23 0.73,-0.45 1.26,-0.66 0.54,-0.21 1.11,-0.31 1.72,-0.31 0.69,0 1.26,0.25 1.69,0.76 0.43,0.51 0.65,1.13 0.65,1.87 v 13.85 h -3.25 v -12.19 c 0,-0.57 -0.08,-0.98 -0.24,-1.24 -0.16,-0.26 -0.49,-0.39 -0.98,-0.39 -0.28,0 -0.56,0.06 -0.83,0.17 -0.28,0.11 -0.48,0.22 -0.62,0.32 -0.14,0.1 -0.33,0.25 -0.58,0.46 v 12.86 h -3.25 z" />
			<path
   inkscape:connector-curvature="0"
   id="path884"
   d="m 249.2,200.37 c -1.28,0 -2.21,-0.33 -2.79,-0.98 -0.58,-0.65 -0.88,-1.64 -0.89,-2.96 v -10.11 h -1.62 v -2.44 h 1.62 v -5.69 h 3.25 v 5.69 h 2.44 v 2.44 h -2.44 v 9.48 c 0,0.65 0.09,1.13 0.27,1.43 0.18,0.3 0.54,0.46 1.08,0.46 0.24,0 0.6,-0.04 1.09,-0.13 v 2.64 c -0.82,0.12 -1.49,0.17 -2.01,0.17 z" />
			<path
   inkscape:connector-curvature="0"
   id="path886"
   d="m 253.49,181.45 v -3.25 h 3.25 v 3.25 z m 0,18.69 v -16.25 h 3.25 v 16.25 z" />
			<path
   inkscape:connector-curvature="0"
   id="path888"
   d="m 267.93,198.84 c -0.75,1.02 -2,1.52 -3.75,1.52 -1.75,0 -2.99,-0.51 -3.75,-1.52 -0.76,-1.01 -1.13,-2.48 -1.13,-4.39 v -4.88 c 0,-1.91 0.38,-3.38 1.13,-4.39 0.75,-1.01 2,-1.52 3.75,-1.52 1.75,0 2.99,0.51 3.75,1.52 0.76,1.01 1.13,2.48 1.13,4.39 v 4.88 c 0,1.91 -0.38,3.38 -1.13,4.39 z m -4.35,-1.24 c 0.17,0.07 0.37,0.1 0.6,0.1 0.23,0 0.43,-0.03 0.6,-0.1 0.17,-0.07 0.32,-0.15 0.43,-0.25 0.12,-0.1 0.21,-0.24 0.29,-0.43 0.08,-0.19 0.14,-0.36 0.18,-0.5 0.04,-0.14 0.07,-0.35 0.09,-0.62 0.02,-0.27 0.03,-0.48 0.03,-0.64 0,-0.16 0.01,-0.39 0.01,-0.7 v -4.88 c 0,-0.31 0,-0.55 -0.01,-0.7 0,-0.16 -0.01,-0.37 -0.03,-0.64 -0.02,-0.27 -0.05,-0.48 -0.09,-0.62 -0.04,-0.14 -0.1,-0.31 -0.18,-0.5 -0.08,-0.19 -0.17,-0.33 -0.29,-0.43 -0.11,-0.1 -0.26,-0.18 -0.43,-0.25 -0.17,-0.07 -0.37,-0.1 -0.6,-0.1 -0.23,0 -0.43,0.03 -0.6,0.1 -0.17,0.07 -0.32,0.15 -0.43,0.25 -0.12,0.1 -0.21,0.24 -0.29,0.43 -0.08,0.19 -0.14,0.36 -0.18,0.5 -0.04,0.14 -0.07,0.35 -0.09,0.62 -0.02,0.27 -0.03,0.48 -0.03,0.64 0,0.16 -0.01,0.39 -0.01,0.7 v 4.88 c 0,0.31 0,0.55 0.01,0.7 0,0.16 0.01,0.37 0.03,0.64 0.02,0.27 0.05,0.48 0.09,0.62 0.04,0.14 0.1,0.31 0.18,0.5 0.08,0.19 0.17,0.33 0.29,0.43 0.11,0.1 0.26,0.18 0.43,0.25 z" />
			<path
   inkscape:connector-curvature="0"
   id="path890"
   d="m 271.49,200.14 v -16.25 h 3.25 v 1.75 c 0.48,-0.44 0.88,-0.78 1.18,-1.01 0.3,-0.23 0.73,-0.45 1.26,-0.66 0.54,-0.21 1.11,-0.31 1.72,-0.31 0.69,0 1.26,0.25 1.69,0.76 0.43,0.51 0.65,1.13 0.65,1.87 v 13.85 h -3.25 v -12.19 c 0,-0.57 -0.08,-0.98 -0.24,-1.24 -0.16,-0.26 -0.49,-0.39 -0.98,-0.39 -0.28,0 -0.56,0.06 -0.83,0.17 -0.28,0.11 -0.48,0.22 -0.62,0.32 -0.14,0.1 -0.33,0.25 -0.58,0.46 v 12.86 h -3.25 z" />
		</g>
	</g>
	<rect
   id="rect896"
   height="20.440001"
   width="5"
   class="st1"
   y="180.57001"
   x="294.14999" />
	<g
   id="g962">
		<g
   id="g960">
			<path
   inkscape:connector-curvature="0"
   id="path898"
   d="m 313.94,187.66 h -3.44 l -0.51,1.27 h -2.31 l 3.45,-7.7 h 2.2 l 3.44,7.7 h -2.33 z m -1.72,-4.28 -0.99,2.45 h 1.97 z"
   class="st2" />
			<path
   inkscape:connector-curvature="0"
   id="path900"
   d="m 320.69,181.22 c 2.72,0 4.03,1.67 4.03,3.8 0,2.12 -1.27,3.91 -4.03,3.91 h -3.3 v -7.7 h 3.3 z m -1.14,5.87 h 1.14 c 1.39,0 1.87,-1.03 1.87,-2.09 0,-1.06 -0.54,-1.96 -1.87,-1.96 h -1.14 z"
   class="st2" />
			<path
   inkscape:connector-curvature="0"
   id="path902"
   d="m 330.04,188.96 h -2.12 l -3.2,-7.73 h 2.41 l 0.88,2.31 0.97,2.85 0.98,-2.85 0.88,-2.31 h 2.41 z"
   class="st2" />
			<path
   inkscape:connector-curvature="0"
   id="path904"
   d="m 338.59,187.66 h -3.44 l -0.51,1.27 h -2.31 l 3.45,-7.7 h 2.2 l 3.44,7.7 h -2.33 z m -1.72,-4.28 -0.99,2.45 h 1.97 z"
   class="st2" />
			<path
   inkscape:connector-curvature="0"
   id="path906"
   d="m 347.14,185.44 c -0.05,-0.92 -0.05,-1.28 -0.07,-1.57 v -2.64 h 2.19 v 7.7 h -1.85 l -3.21,-4.15 0.03,1.68 v 2.46 h -2.2 v -7.7 h 1.85 z"
   class="st2" />
			<path
   inkscape:connector-curvature="0"
   id="path908"
   d="m 357.72,187.92 c -0.87,0.86 -1.93,1.2 -3.09,1.2 -3.03,0 -4.2,-1.9 -4.21,-3.99 -0.01,-1.98 1.32,-4.08 4.21,-4.08 1.11,0 2.11,0.38 2.98,1.23 l -1.34,1.32 c -0.55,-0.53 -1.12,-0.67 -1.64,-0.67 -1.49,0 -2.07,1.21 -2.06,2.21 0.01,1 0.54,2.13 2.06,2.13 0.52,0 1.27,-0.22 1.82,-0.78 z"
   class="st2" />
			<path
   inkscape:connector-curvature="0"
   id="path910"
   d="m 358.61,188.93 v -7.7 h 2.17 v 7.7 z"
   class="st2" />
			<path
   inkscape:connector-curvature="0"
   id="path912"
   d="m 367.44,185.44 c -0.05,-0.92 -0.05,-1.28 -0.07,-1.57 v -2.64 h 2.19 v 7.7 h -1.85 l -3.21,-4.15 0.03,1.68 v 2.46 h -2.2 v -7.7 h 1.85 z"
   class="st2" />
			<path
   inkscape:connector-curvature="0"
   id="path914"
   d="m 376.67,183.5 c -0.56,-0.53 -1.24,-0.67 -1.76,-0.67 -1.25,0 -2.07,0.75 -2.07,2.26 0,0.99 0.52,2.21 2.07,2.21 0.41,0 1.05,-0.08 1.49,-0.4 v -0.99 h -1.95 v -1.71 h 3.76 v 3.42 c -0.48,0.98 -1.83,1.51 -3.31,1.51 -3.05,0 -4.2,-2.04 -4.2,-4.05 0,-2.01 1.32,-4.08 4.21,-4.08 1.07,0 2.01,0.22 3.03,1.24 z"
   class="st2" />
			<path
   inkscape:connector-curvature="0"
   id="path916"
   d="m 388.82,187.92 c -0.87,0.86 -1.93,1.2 -3.09,1.2 -3.03,0 -4.2,-1.9 -4.21,-3.99 -0.01,-1.98 1.32,-4.08 4.21,-4.08 1.11,0 2.11,0.38 2.98,1.23 l -1.34,1.32 c -0.55,-0.53 -1.12,-0.67 -1.64,-0.67 -1.49,0 -2.07,1.21 -2.06,2.21 0.01,1 0.54,2.13 2.06,2.13 0.52,0 1.27,-0.22 1.82,-0.78 z"
   class="st2" />
			<path
   inkscape:connector-curvature="0"
   id="path918"
   d="m 395.03,187.66 h -3.44 l -0.51,1.27 h -2.31 l 3.45,-7.7 h 2.2 l 3.44,7.7 h -2.33 z m -1.72,-4.28 -0.99,2.45 h 1.97 z"
   class="st2" />
			<path
   inkscape:connector-curvature="0"
   id="path920"
   d="m 403.58,185.44 c -0.05,-0.92 -0.05,-1.28 -0.07,-1.57 v -2.64 h 2.19 v 7.7 h -1.85 l -3.21,-4.15 0.03,1.68 v 2.46 h -2.2 v -7.7 h 1.85 z"
   class="st2" />
			<path
   inkscape:connector-curvature="0"
   id="path922"
   d="m 414.16,187.92 c -0.87,0.86 -1.93,1.2 -3.09,1.2 -3.03,0 -4.2,-1.9 -4.21,-3.99 -0.01,-1.98 1.32,-4.08 4.21,-4.08 1.11,0 2.11,0.38 2.98,1.23 l -1.34,1.32 c -0.55,-0.53 -1.12,-0.67 -1.64,-0.67 -1.49,0 -2.07,1.21 -2.06,2.21 0.01,1 0.54,2.13 2.06,2.13 0.52,0 1.27,-0.22 1.82,-0.78 z"
   class="st2" />
			<path
   inkscape:connector-curvature="0"
   id="path924"
   d="m 421.21,188.93 h -6.16 v -7.7 h 6.01 v 1.83 h -3.86 v 1.1 h 3.64 v 1.77 h -3.64 v 1.17 h 4.02 v 1.83 z"
   class="st2" />
			<path
   inkscape:connector-curvature="0"
   id="path926"
   d="m 429.57,188.93 h -2.4 l -1.79,-2.5 h -0.76 v 2.5 h -2.18 v -7.7 h 3.76 c 1.97,0 2.99,1.27 2.99,2.65 0,0.95 -0.33,1.75 -1.63,2.32 l 2,2.6 v 0.13 z m -4.95,-5.97 v 1.85 h 1.61 c 0.57,0 0.83,-0.43 0.83,-0.89 0,-0.48 -0.27,-0.96 -0.85,-0.96 z"
   class="st2" />
			<path
   inkscape:connector-curvature="0"
   id="path928"
   d="m 315.75,200.96 h -2.4 l -1.79,-2.5 h -0.76 v 2.5 h -2.18 v -7.7 h 3.76 c 1.97,0 2.99,1.27 2.99,2.65 0,0.95 -0.33,1.75 -1.63,2.32 l 2,2.6 v 0.13 z M 310.8,195 v 1.85 h 1.61 c 0.57,0 0.83,-0.43 0.83,-0.89 0,-0.48 -0.27,-0.96 -0.85,-0.96 z"
   class="st2" />
			<path
   inkscape:connector-curvature="0"
   id="path930"
   d="m 322.89,200.96 h -6.16 v -7.7 h 6.01 v 1.83 h -3.86 v 1.1 h 3.64 v 1.77 h -3.64 v 1.17 h 4.02 v 1.83 z"
   class="st2" />
			<path
   inkscape:connector-curvature="0"
   id="path932"
   d="m 328.86,195.4 c -0.53,-0.4 -1.13,-0.53 -1.8,-0.53 -0.53,0 -1.05,0.17 -1.05,0.57 0,0.53 0.52,0.61 1.28,0.68 1.53,0.17 3.12,0.78 3.12,2.55 0,1.75 -1.65,2.5 -3.38,2.51 -1.39,0.01 -2.38,-0.23 -3.44,-1.35 l 1.2,-1.38 c 0.76,0.74 1.61,0.87 2.26,0.87 0.72,0 1.21,-0.25 1.21,-0.68 0,-0.39 -0.44,-0.63 -1.29,-0.7 -1.68,-0.15 -3.14,-0.58 -3.14,-2.5 0,-1.63 1.6,-2.33 3.22,-2.33 1.15,0 2.06,0.26 2.88,0.91 z"
   class="st2" />
			<path
   inkscape:connector-curvature="0"
   id="path934"
   d="m 337.61,200.96 h -6.16 v -7.7 h 6.01 v 1.83 h -3.86 v 1.1 h 3.64 v 1.77 h -3.64 v 1.17 h 4.02 v 1.83 z"
   class="st2" />
			<path
   inkscape:connector-curvature="0"
   id="path936"
   d="m 344.15,199.7 h -3.44 l -0.51,1.27 h -2.31 l 3.45,-7.7 h 2.2 l 3.44,7.7 h -2.33 z m -1.71,-4.28 -0.99,2.45 h 1.97 z"
   class="st2" />
			<path
   inkscape:connector-curvature="0"
   id="path938"
   d="m 354.73,200.96 h -2.4 l -1.79,-2.5 h -0.76 v 2.5 h -2.18 v -7.7 h 3.76 c 1.97,0 2.99,1.27 2.99,2.65 0,0.95 -0.33,1.75 -1.63,2.32 l 2,2.6 v 0.13 z M 349.78,195 v 1.85 h 1.61 c 0.57,0 0.83,-0.43 0.83,-0.89 0,-0.48 -0.27,-0.96 -0.85,-0.96 z"
   class="st2" />
			<path
   inkscape:connector-curvature="0"
   id="path940"
   d="m 362.53,199.96 c -0.87,0.86 -1.93,1.2 -3.09,1.2 -3.03,0 -4.2,-1.9 -4.21,-3.99 -0.01,-1.98 1.32,-4.08 4.21,-4.08 1.11,0 2.11,0.38 2.98,1.23 l -1.34,1.32 c -0.55,-0.53 -1.12,-0.67 -1.64,-0.67 -1.49,0 -2.07,1.21 -2.06,2.21 0.01,1 0.54,2.13 2.06,2.13 0.52,0 1.27,-0.22 1.82,-0.78 z"
   class="st2" />
			<path
   inkscape:connector-curvature="0"
   id="path942"
   d="m 368.37,200.98 v -2.92 h -2.77 v 2.92 h -2.18 v -7.7 h 2.18 v 2.93 h 2.77 v -2.93 h 2.16 v 7.7 z"
   class="st2" />
			<path
   inkscape:connector-curvature="0"
   id="path944"
   d="m 375.93,195.06 h -2.24 v -1.79 h 6.67 v 1.79 h -2.26 v 5.91 h -2.17 z"
   class="st2" />
			<path
   inkscape:connector-curvature="0"
   id="path946"
   d="m 385.04,201.15 c -2.52,0 -4.28,-1.46 -4.28,-4.04 0,-2.53 1.76,-4.04 4.28,-4.04 2.53,0 4.28,1.47 4.28,4.04 0,2.58 -1.75,4.04 -4.28,4.04 z m 0,-6.21 c -1.24,0 -2.1,0.9 -2.1,2.18 0,1.29 0.87,2.18 2.1,2.18 1.28,0 2.1,-0.9 2.1,-2.18 0,-1.33 -0.83,-2.18 -2.1,-2.18 z"
   class="st2" />
			<path
   inkscape:connector-curvature="0"
   id="path948"
   d="m 396,195.54 c -0.56,-0.53 -1.24,-0.67 -1.76,-0.67 -1.25,0 -2.07,0.75 -2.07,2.26 0,0.99 0.52,2.21 2.07,2.21 0.41,0 1.05,-0.08 1.49,-0.4 v -0.99 h -1.95 v -1.71 h 3.76 v 3.42 c -0.48,0.98 -1.83,1.51 -3.31,1.51 -3.05,0 -4.2,-2.04 -4.2,-4.05 0,-2.01 1.32,-4.08 4.21,-4.08 1.07,0 2.01,0.22 3.03,1.24 z"
   class="st2" />
			<path
   inkscape:connector-curvature="0"
   id="path950"
   d="m 404.93,200.96 h -6.16 v -7.7 h 6.01 v 1.83 h -3.86 v 1.1 h 3.64 v 1.77 h -3.64 v 1.17 h 4.02 v 1.83 z"
   class="st2" />
			<path
   inkscape:connector-curvature="0"
   id="path952"
   d="m 407.79,195.06 h -2.24 v -1.79 h 6.67 v 1.79 h -2.26 v 5.91 h -2.17 z"
   class="st2" />
			<path
   inkscape:connector-curvature="0"
   id="path954"
   d="m 418.11,200.98 v -2.92 h -2.77 v 2.92 h -2.18 v -7.7 h 2.18 v 2.93 h 2.77 v -2.93 h 2.16 v 7.7 z"
   class="st2" />
			<path
   inkscape:connector-curvature="0"
   id="path956"
   d="m 427.98,200.96 h -6.16 v -7.7 h 6.01 v 1.83 h -3.86 v 1.1 h 3.64 v 1.77 h -3.64 v 1.17 h 4.02 v 1.83 z"
   class="st2" />
			<path
   inkscape:connector-curvature="0"
   id="path958"
   d="m 436.34,200.96 h -2.4 l -1.79,-2.5 h -0.76 v 2.5 h -2.18 v -7.7 h 3.76 c 1.97,0 2.99,1.27 2.99,2.65 0,0.95 -0.33,1.75 -1.63,2.32 l 2,2.6 v 0.13 z M 431.39,195 v 1.85 H 433 c 0.57,0 0.83,-0.43 0.83,-0.89 0,-0.48 -0.27,-0.96 -0.85,-0.96 z"
   class="st2" />
		</g>
	</g>
</g>
</svg>
